<svg width="200" height="185" viewBox="0 0 200 185" fill="none" xmlns="http://www.w3.org/2000/svg">
<path fill-rule="evenodd" clip-rule="evenodd" d="M61.6318 20.7646C63.5137 21.9748 64.8655 23.5842 65.8584 25.0391C76.512 21.8655 88.0095 20.1338 100 20.1338C112.183 20.1338 123.858 21.9216 134.655 25.1934C136.05 23.6936 137.871 21.8633 140.035 20.5322L167.811 0.109375L182.315 47.1494C183.659 50.2182 185.134 54.8612 186.467 58.7363C187.07 60.4914 187.651 62.1116 188.202 63.4717C195.73 74.9941 200 88.162 200 102.148C200 147.444 155.228 184.162 100 184.162C44.7717 184.162 0.000170956 147.444 0 102.148C8.54631e-05 86.354 5.44418 71.6025 14.877 59.0869C15.1812 58.4924 15.4979 57.8698 15.8193 57.2246C17.4848 53.8812 19.2025 50.2194 20.3076 47.6543L34.4502 0L61.6318 20.7646ZM84.1729 96.3926C72.202 79.775 64.0287 70.8534 48.9209 73.0117C33.8132 75.17 30.9825 81.4302 17.2666 100.709C27.6717 111.083 34.1728 116.536 48.9209 117.256C64.7482 117.256 71.0694 110.483 84.1729 96.3926ZM178.058 94.9541C167.626 79.4866 153.957 68.6953 139.568 69.7744C125.18 70.8536 116.547 80.5655 105.036 96.3926C120.144 108.623 132.734 115.098 143.885 115.098C155.036 115.098 166.407 107.138 178.058 94.9541ZM58.4736 24.6133C58.2082 24.7853 58.0374 25.1423 57.7402 25.335C58.0365 25.1414 58.2598 24.8663 58.4736 24.6133ZM142.916 24.2461C143.179 24.5793 143.451 24.9371 143.82 25.1895C143.451 24.9379 143.25 24.4738 142.916 24.2461ZM59.9023 23.2188C59.7751 23.3012 59.6634 23.4282 59.5459 23.5664C59.6912 23.4723 59.7752 23.3011 59.9023 23.2188ZM165.592 5.50977L165.593 5.50781L142.262 23.5518L165.592 5.50977L165.593 5.51465L165.604 5.50098L165.592 5.50977ZM141.964 23.2578C141.91 23.1893 141.856 23.1223 141.796 23.0674L141.727 23.0117L141.964 23.2578Z" fill="white"/>
<path d="M97.7793 111.739C101.504 111.739 104.524 114.44 104.524 117.773C104.524 120.214 102.904 122.315 100.573 123.265C100.72 123.685 101.03 124.515 101.364 125.216C101.396 125.283 101.517 125.457 101.901 125.798C102.084 125.96 102.273 126.115 102.509 126.312C102.729 126.496 102.988 126.715 103.233 126.95C103.956 127.64 104.64 127.948 105.833 128.718C105.982 128.815 106.442 129.022 107.243 129.259C107.993 129.481 108.896 129.687 109.815 129.837C111.843 130.166 113.466 129.883 114.137 129.644C114.426 129.541 114.786 129.353 115.341 129.011C115.613 128.844 115.905 128.658 116.246 128.44C116.582 128.226 116.955 127.988 117.366 127.736C117.392 127.72 117.441 127.693 117.522 127.527C117.621 127.327 117.712 127.038 117.839 126.543C117.853 126.401 117.858 126.216 117.857 125.953C117.857 125.666 117.857 125.454 117.856 125.236C117.855 124.132 118.749 123.235 119.854 123.233C120.958 123.232 121.855 124.127 121.856 125.231C121.857 125.449 121.857 125.662 121.857 125.951C121.858 126.213 121.861 126.716 121.787 127.21L121.772 127.306L121.749 127.4C121.487 128.447 121.071 130.158 119.456 131.147C119.078 131.379 118.731 131.6 118.397 131.812C118.07 132.021 117.744 132.229 117.437 132.419C116.832 132.79 116.179 133.163 115.477 133.413C114.118 133.896 111.809 134.213 109.175 133.785C108.105 133.611 107.035 133.369 106.108 133.095C105.235 132.837 104.315 132.499 103.662 132.078C102.921 131.599 101.559 130.882 100.472 129.843C100.33 129.708 100.16 129.562 99.9443 129.381C99.7443 129.214 99.4871 129.004 99.2471 128.791C98.9283 128.508 98.5261 128.124 98.1768 127.641C97.7852 128.192 97.2706 128.592 96.8164 128.88C96.3139 129.199 95.7418 129.476 95.1738 129.723C94.1116 130.186 92.6056 130.73 91.3672 131.232C89.9772 131.795 88.8756 132.046 88.0264 132.25C86.4413 132.63 84.4479 132.621 82.8477 132.512C81.2627 132.404 79.7158 132.171 78.9844 131.942C77.5662 131.497 76.5643 130.86 75.75 130.431C74.8746 129.971 73.8951 129.399 72.9102 128.445L72.8877 128.422C72.6909 128.226 72.5525 128.088 72.417 127.962C72.37 127.918 72.3425 127.893 72.2705 127.839C72.1781 127.771 72.0128 127.656 71.6934 127.45C70.7648 126.852 70.4968 125.614 71.0947 124.685C71.6928 123.757 72.9307 123.489 73.8594 124.087C74.5774 124.549 74.851 124.763 75.1396 125.032C75.3304 125.209 75.5146 125.393 75.6934 125.572C76.2794 126.14 76.8747 126.503 77.6133 126.891C78.744 127.486 79.2197 127.824 80.1816 128.126C80.4466 128.209 81.6074 128.418 83.1201 128.521C84.6184 128.623 86.1162 128.594 87.0928 128.36C87.9522 128.154 88.786 127.962 89.8662 127.524C91.3944 126.905 92.522 126.516 93.5762 126.056C94.0663 125.843 94.4242 125.661 94.6738 125.503C94.8405 125.397 94.9093 125.332 94.9258 125.316C95.2287 124.847 95.5852 124.175 95.8994 123.568C93.0897 122.839 91.0352 120.522 91.0352 117.773C91.0352 114.44 94.0546 111.739 97.7793 111.739Z" fill="#18181B"/>
<path fill-rule="evenodd" clip-rule="evenodd" d="M50.5664 71.2887C58.5523 70.1479 64.8251 71.9585 70.5977 76.2526C76.2359 80.4469 81.3689 86.996 87.2598 95.1735L88.2188 96.5035L87.1016 97.7047C80.6916 104.598 75.726 109.949 70.3584 113.517C64.8625 117.171 59.002 118.931 50.8496 118.931H50.8008L50.752 118.929C43.2154 118.562 37.6518 116.972 32.624 114.073C27.6627 111.212 23.3245 107.128 18.1992 102.018L17 100.823L17.9814 99.443C24.6492 90.0709 28.8938 83.5257 33.3125 79.1744C37.9293 74.6283 42.7781 72.4013 50.5664 71.2887ZM68.2109 79.4625C63.2703 75.7873 58.0548 74.2597 51.1318 75.2487C44.0117 76.2659 40.0099 78.1938 36.1191 82.025C32.2296 85.8551 28.489 91.5205 22.2227 100.373C26.8027 104.893 30.5217 108.243 34.6221 110.607C38.9964 113.129 43.9047 114.583 50.8936 114.93C58.3355 114.924 63.3937 113.344 68.1445 110.186C72.7488 107.125 77.1127 102.561 83.0527 96.1823C77.566 88.6355 73.008 83.0312 68.2109 79.4625Z" fill="#18181B"/>
<path fill-rule="evenodd" clip-rule="evenodd" d="M140.154 68.0797C155.475 66.9309 169.545 78.3844 179.944 93.8043L180.846 95.1403L179.731 96.3043C168.206 108.357 156.469 116.801 144.563 116.801C132.829 116.801 119.939 110.017 104.967 97.8971L103.491 96.7018L104.608 95.1656C115.916 79.6171 124.928 69.2218 140.154 68.0797ZM175.711 94.7067C165.67 80.357 153.141 71.1164 140.453 72.068C127.719 73.0232 119.793 81.2548 108.97 95.9772C123.131 107.201 134.634 112.801 144.563 112.801C154.334 112.801 164.667 106.004 175.711 94.7067Z" fill="#18181B"/>
<path d="M70.9502 57.6725C73.5834 57.4265 79.939 56.8637 84.2549 57.6051C86.7067 58.0263 89.8059 58.4146 90.5703 58.4147C91.6748 58.4147 92.5702 59.3102 92.5703 60.4147C92.5703 61.5192 91.6749 62.4146 90.5703 62.4147C89.4116 62.4146 85.9821 61.9606 83.5771 61.5475C79.8827 60.9129 74.0865 61.3967 71.3223 61.6549C64.4669 62.2952 61.4278 62.476 58.0781 62.0006C55.9089 61.6927 53.2509 61.3691 51.0371 61.5104C49.0419 61.6377 47.0153 61.7095 45.2881 61.7731C43.5215 61.8381 42.1366 61.8923 41.3164 61.9791C38.2922 62.2994 36.2131 62.4418 34.5518 62.6549L34.4971 62.6617L34.4414 62.6666C33.1515 62.7597 32.2226 63.0181 31.7061 63.2194L31.7051 63.2184C31.3839 63.3498 30.9186 63.5525 30.3271 63.7487C29.2788 64.0963 28.1465 63.5285 27.7988 62.4801C27.4512 61.4317 28.0191 60.2996 29.0674 59.9518C29.5127 59.8041 29.8083 59.6724 30.2256 59.5026L30.2393 59.4977L30.2539 59.4918C31.1527 59.1416 32.4566 58.8061 34.0977 58.6823C35.7747 58.4699 38.1359 58.2938 40.8955 58.0016C41.8868 57.8966 43.441 57.8386 45.1416 57.776C46.8815 57.712 48.8511 57.6414 50.7822 57.5182C53.4563 57.3475 56.491 57.7346 58.6406 58.0397C61.4529 58.4388 64.0328 58.3186 70.9502 57.6725Z" fill="#18181B"/>
<path d="M153.794 56.3707C160.131 55.9304 163.783 56.0007 166.094 56.2594C168.418 56.5198 169.55 57.0241 170.046 57.1549L170.153 57.1832L170.258 57.2233C170.785 57.4272 171.302 57.7146 171.609 57.8776C171.952 58.0589 172.271 58.2193 172.623 58.3951C173.61 58.8894 174.01 60.0901 173.517 61.0778C173.023 62.0654 171.822 62.4658 170.834 61.9723C170.487 61.7986 170.126 61.6184 169.736 61.4117C169.344 61.2036 169.101 61.0725 168.871 60.9781C167.936 60.7146 167.495 60.4408 165.648 60.234C163.687 60.0144 160.31 59.9275 154.071 60.361C152.102 60.4978 150.666 60.7116 149.066 60.9078C147.466 61.1042 145.791 61.2696 143.503 61.275C134.493 61.2964 128.158 61.5872 126.77 61.6676C124.663 61.7896 122.9 61.9345 121.583 62.0485C120.357 62.1545 119.329 62.2544 118.907 62.2545C117.803 62.2545 116.908 61.3588 116.907 60.2545C116.907 59.1499 117.803 58.2545 118.907 58.2545C118.911 58.2544 118.927 58.254 118.958 58.2526C118.995 58.2509 119.045 58.248 119.108 58.2438C119.236 58.2353 119.402 58.2221 119.609 58.2047C120.029 58.1695 120.562 58.1216 121.238 58.0631C122.575 57.9475 124.379 57.7995 126.538 57.6744C128.003 57.5896 134.412 57.2966 143.493 57.275C145.568 57.2701 147.072 57.122 148.579 56.9371C150.086 56.7522 151.686 56.5172 153.794 56.3707Z" fill="#18181B"/>
</svg>
